<svg width="52" height="59" viewBox="0 0 52 59" fill="none" xmlns="http://www.w3.org/2000/svg">
<path d="M0.261531 10.1225L1.70148 18.1595L9.73847 16.7196L8.29852 8.68258L0.261531 10.1225ZM24.5446 58.7735L30.3181 53L24.5446 47.2265L18.7711 53L24.5446 58.7735ZM51.9379 10.4293L44.0082 8.48317L42.0621 16.4128L49.9918 18.3589L51.9379 10.4293ZM24.5446 0.226497L18.7711 6L24.5446 11.7735L30.3181 6L24.5446 0.226497ZM6.71165 27.0263L12.4851 32.7998L18.2587 27.0263L12.4851 21.2528L6.71165 27.0263ZM41.6891 32.4899L37.9411 25.2359L30.6872 28.9838L34.4351 36.2378L41.6891 32.4899ZM33.7344 8.23453L26.0115 10.8847L28.6616 18.6076L36.3845 15.9574L33.7344 8.23453ZM14.0438 6.20461L11.4885 13.9594L19.2433 16.5147L21.7986 8.75987L14.0438 6.20461ZM4.42868 14.2418L23.9732 27.847L25.1159 26.2056L5.57132 12.6003L4.42868 14.2418ZM23.5446 27.0263V53H25.5446V27.0263H23.5446ZM25.0627 27.8816L47.5182 14.2763L46.4818 12.5658L24.0264 26.171L25.0627 27.8816ZM25.5446 27.0263V6H23.5446V27.0263H25.5446ZM24.5446 26.0263H12.4851V28.0263H24.5446V26.0263ZM24.2409 27.9791L35.8845 31.6896L36.4917 29.7841L24.8482 26.0735L24.2409 27.9791ZM25.4429 27.4656L32.0964 13.8604L30.2997 12.9817L23.6462 26.587L25.4429 27.4656ZM25.4374 26.576L17.5364 10.9094L15.7507 11.8099L23.6517 27.4766L25.4374 26.576Z" fill="white"/>
</svg>
